HIERARCHY
ROOT Hips
{
	OFFSET 0.00000 0.00000 0.00000
	CHANNELS 6 Xposition Yposition Zposition Zrotation Yrotation Xrotation 
	JOINT LHipJoint
	{
		OFFSET 0 0 0
		CHANNELS 3 Zrotation Yrotation Xrotation
		JOINT LeftHip
		{
			OFFSET 1.37590 -1.78394 0.89329
			CHANNELS 3 Zrotation Yrotation Xrotation
			JOINT LeftKnee
			{
				OFFSET 2.47928 -6.81178 0.00000
				CHANNELS 3 Zrotation Yrotation Xrotation
				JOINT LeftAnkle
				{
					OFFSET 2.63345 -7.23535 0.00000
					CHANNELS 3 Zrotation Yrotation Xrotation
					JOINT LeftToe
					{
						OFFSET 0.23938 -0.65768 2.27012
						CHANNELS 3 Zrotation Yrotation Xrotation
						End Site
						{
							OFFSET 0.00000 -0.00000 1.18363
						}
					}
				}
			}
		}
	}
	JOINT RHipJoint
	{
		OFFSET 0 0 0
		CHANNELS 3 Zrotation Yrotation Xrotation
		JOINT RightHip
		{
			OFFSET -1.33617 -1.78394 0.89329
			CHANNELS 3 Zrotation Yrotation Xrotation
			JOINT RightKnee
			{
				OFFSET -2.56922 -7.05888 0.00000
				CHANNELS 3 Zrotation Yrotation Xrotation
				JOINT RightAnkle
				{
					OFFSET -2.56568 -7.04915 0.00000
					CHANNELS 3 Zrotation Yrotation Xrotation
					JOINT RightToe
					{
						OFFSET -0.27533 -0.75646 2.18105
						CHANNELS 3 Zrotation Yrotation Xrotation
						End Site
						{
							OFFSET -0.00000 -0.00000 1.15233
						}
					}
				}
			}
		}
	}
	JOINT lowerback
	{
		OFFSET 0 0 0
		CHANNELS 3 Zrotation Yrotation Xrotation
		JOINT Chest
		{
			OFFSET 0.06190 2.15152 -0.00935
			CHANNELS 3 Zrotation Yrotation Xrotation
			JOINT Chest2
			{
				OFFSET 0.06334 2.15332 0.00872
				CHANNELS 3 Zrotation Yrotation Xrotation
				JOINT lowerneck
				{
					OFFSET 0 0 0
					CHANNELS 3 Zrotation Yrotation Xrotation
					JOINT Neck
					{
						OFFSET -0.04202 1.66908 0.23524
						CHANNELS 3 Zrotation Yrotation Xrotation
						JOINT Head
						{
							OFFSET 0.07510 1.69357 -0.24440
							CHANNELS 3 Zrotation Yrotation Xrotation
							End Site
							{
								OFFSET 0.02556 1.71719 -0.11000
							}
						}
					}
				}
				JOINT LeftCollar
				{
					OFFSET 0 0 0
					CHANNELS 3 Zrotation Yrotation Xrotation
					JOINT LeftShoulder
					{
						OFFSET 3.67168 1.26306 -0.41342
CHANNELS 3 Zrotation Xrotation Yrotation
						JOINT LeftElbow
						{
OFFSET 0 -4.685100 -0.000000
CHANNELS 3 Zrotation Xrotation Yrotation
							JOINT LeftWrist
							{
OFFSET 0 -3.396260 -0.000000
CHANNELS 3 Zrotation Xrotation Yrotation
								JOINT lhand
								{
									OFFSET 0 0 0
CHANNELS 3 Zrotation Xrotation Yrotation
									JOINT LFingers
									{
OFFSET 0 -0.486080 -0.000000
CHANNELS 3 Zrotation Xrotation Yrotation
										End Site
										{
OFFSET 0 -0.391890 -0.000000
										}
									}
								}
								JOINT LThumb
								{
OFFSET 0 0.000000 0.000000
CHANNELS 3 Zrotation Xrotation Yrotation
									End Site
									{
OFFSET 0 -0.397870 0.397870
									}
								}
							}
						}
					}
				}
				JOINT RightCollar
				{
					OFFSET 0 0 0
					CHANNELS 3 Zrotation Yrotation Xrotation
					JOINT RightShoulder
					{
						OFFSET -3.04136 1.42992 -0.76390
CHANNELS 3 Zrotation Xrotation Yrotation
						JOINT RightElbow
						{
OFFSET 0 -5.555760 -0.000000
CHANNELS 3 Zrotation Xrotation Yrotation
							JOINT RightWrist
							{
OFFSET 0 -3.327740 -0.000000
CHANNELS 3 Zrotation Xrotation Yrotation
								JOINT rhand
								{
									OFFSET 0 0 0
CHANNELS 3 Zrotation Xrotation Yrotation
									JOINT RFingers
									{
OFFSET 0 -0.507630 -0.000000
CHANNELS 3 Zrotation Xrotation Yrotation
										End Site
										{
OFFSET 0 -0.409260 -0.000000
										}
									}
								}
								JOINT RThumb
								{
OFFSET 0 0.000000 0.000000
CHANNELS 3 Zrotation Xrotation Yrotation
									End Site
									{
OFFSET 0 -0.415510 0.415510
									}
								}
							}
						}
					}
				}
			}
		}
	}
}
MOTION
Frames: 9
Frame Time: 0.008333333333333333
6.797915 17.591040 5.839565 -330.155043 -86.978380 336.992447 0.000000 0.000000 0.000000 -21.291668 -4.383238 2.556884 1.527351 7.802604 22.116270 0.383777 -7.712504 -11.507489 0.648450 -5.150461 -14.338418 0.000000 0.000000 0.000000 12.715330 7.174776 -33.770387 -1.190841 -6.924783 19.492589 1.081731 -18.045769 -7.382357 -0.521824 -4.629252 12.854031 0.450829 -1.457406 -0.133462 3.065353 -1.957548 -0.905689 2.901654 -0.986434 -0.761103 -8.220997 -4.420607 -13.902813 7.618005 -4.963897 -4.942405 3.718959 -2.334908 1.281607 0.000000 0.000000 0.000000 2.949777 -2.933983 4.740741 8.359892 -14.134475 1.038323 11.435047 50.999320 -24.221362 0.000000 0.000000 0.000000 -7.125000 0.000000 0.000000 -18.690936 53.649455 4.086260 0.000000 0.000000 0.000000 -5.106044 4.211971 -45.507828 -7.488379 -12.720112 -0.835828 18.121773 8.185716 26.223216 0.000000 0.000000 0.000000 7.125000 0.000000 0.000000 46.544567 50.295211 -7.514318
6.528715 17.597108 5.788764 -334.544185 -87.133101 341.311008 0.000000 0.000000 0.000000 -20.728943 -4.413071 2.311412 1.758461 8.342294 23.759404 0.300963 -7.709143 -10.422929 0.752941 -5.541266 -15.459222 0.000000 0.000000 0.000000 13.357398 7.168858 -33.217170 -1.195347 -6.937401 19.530073 1.058678 -17.855415 -7.010760 -0.594899 -4.937174 13.729636 0.710932 -1.381403 -0.223214 3.152585 -1.857260 -1.027216 2.844928 -0.938494 -0.845426 -8.358852 -4.446903 -13.526218 7.569714 -4.997551 -5.314118 3.731736 -2.358244 1.096032 0.000000 0.000000 0.000000 2.794749 -3.941825 0.185506 8.731856 -14.731848 1.131121 11.128907 48.454940 -23.713048 0.000000 0.000000 0.000000 -7.125000 0.000000 0.000000 -18.722003 53.111726 3.842791 0.000000 0.000000 0.000000 -4.889375 0.779815 -39.890466 -7.685303 -13.041421 -0.879815 19.086558 3.578139 26.288849 0.000000 0.000000 0.000000 7.125000 0.000000 0.000000 47.364908 50.182780 -7.556855
6.258126 17.607594 5.737074 -339.996165 -87.338945 346.661219 0.000000 0.000000 0.000000 -20.107201 -4.445385 1.933907 2.030664 8.927619 25.570573 0.216988 -7.591232 -9.185256 0.850307 -5.880356 -16.437882 0.000000 0.000000 0.000000 14.119722 7.104942 -32.598403 -1.216637 -6.996664 19.705592 1.021970 -17.554563 -6.678591 -0.663578 -5.209415 14.506856 1.021595 -1.288297 -0.315258 3.247904 -1.734662 -1.154589 2.768189 -0.880479 -0.936055 -8.494037 -4.467941 -13.121443 7.523621 -5.028036 -5.673937 3.746193 -2.379391 0.910036 0.000000 0.000000 0.000000 2.684889 -4.900567 -4.564874 9.203708 -15.484216 1.254235 10.816485 45.768503 -23.150479 0.000000 0.000000 0.000000 -7.125000 0.000000 0.000000 -18.736361 52.522789 3.570587 0.000000 0.000000 0.000000 -4.722915 -2.742148 -33.517893 -8.010165 -13.569150 -0.954657 20.071044 -1.628785 26.368359 0.000000 0.000000 0.000000 7.125000 0.000000 0.000000 48.204310 50.076946 -7.610222
5.986806 17.622369 5.684674 -346.988636 -87.576431 353.526327 0.000000 0.000000 0.000000 -19.433218 -4.478178 1.415107 2.345957 9.550383 27.534257 0.137139 -7.357218 -7.818991 0.934662 -6.157858 -17.243309 0.000000 0.000000 0.000000 14.977471 6.993249 -31.910517 -1.249775 -7.087723 19.975461 0.974604 -17.159138 -6.408766 -0.739703 -5.493672 15.322273 1.378180 -1.178777 -0.408627 3.349741 -1.590751 -1.288172 2.672600 -0.812987 -1.033407 -8.625685 -4.485180 -12.697302 7.480345 -5.057192 -6.021916 3.762248 -2.399268 0.725120 0.000000 0.000000 0.000000 2.630751 -5.821940 -9.363518 9.778055 -16.391289 1.412022 10.541337 43.084797 -22.530079 0.000000 0.000000 0.000000 -7.125000 0.000000 0.000000 -18.692364 51.886275 3.264099 0.000000 0.000000 0.000000 -4.610818 -6.342112 -26.671384 -8.493684 -14.349591 -1.071494 21.037912 -7.165955 26.463983 0.000000 0.000000 0.000000 7.125000 0.000000 0.000000 49.035344 49.985193 -7.679659
5.715256 17.641192 5.632024 -356.229346 -87.818135 362.618678 0.000000 0.000000 0.000000 -18.710413 -4.512011 0.749718 2.705463 10.201395 29.632068 0.066471 -7.010795 -6.356790 1.000987 -6.366669 -17.852148 0.000000 0.000000 0.000000 15.908956 6.847384 -31.145381 -1.288887 -7.193551 20.290114 0.920248 -16.693112 -6.209141 -0.827338 -5.802906 16.213814 1.781402 -1.053165 -0.504222 3.455761 -1.426131 -1.425103 2.555204 -0.736559 -1.133562 -8.753168 -4.500547 -12.263905 7.443816 -5.086963 -6.361552 3.781013 -2.418803 0.542191 0.000000 0.000000 0.000000 2.641147 -6.726918 -14.074500 10.455282 -17.448329 1.609019 10.326273 40.511546 -21.875342 0.000000 0.000000 0.000000 -7.125000 0.000000 0.000000 -18.582487 51.228107 2.937012 0.000000 0.000000 0.000000 -4.560020 -10.012527 -19.675024 -9.159950 -15.414754 -1.242556 21.943479 -12.746213 26.567598 0.000000 0.000000 0.000000 7.125000 0.000000 0.000000 49.818386 49.908750 -7.758685
5.444137 17.664135 5.579474 -368.620985 -88.022070 374.847456 0.000000 0.000000 0.000000 -17.940089 -4.547553 -0.066895 3.109196 10.868886 31.839852 0.010043 -6.558050 -4.840405 1.046349 -6.504918 -18.256632 0.000000 0.000000 0.000000 16.895691 6.685147 -30.291039 -1.327851 -7.297397 20.599583 0.862120 -16.176808 -6.086362 -0.914530 -6.093106 17.054807 2.235343 -0.911089 -0.597715 3.562931 -1.240146 -1.566555 2.410705 -0.651170 -1.239561 -8.872760 -4.516024 -11.826318 7.416005 -5.119985 -6.695120 3.802247 -2.439319 0.361324 0.000000 0.000000 0.000000 2.724614 -7.628729 -18.580902 11.236104 -18.648906 1.850960 10.184247 38.131559 -21.205500 0.000000 0.000000 0.000000 -7.125000 0.000000 0.000000 -18.405962 50.567438 2.601819 0.000000 0.000000 0.000000 -4.581397 -13.747341 -12.870032 -10.029895 -16.786037 -1.483942 22.727943 -18.070549 26.679803 0.000000 0.000000 0.000000 7.125000 0.000000 0.000000 50.509877 49.858163 -7.853518
5.173756 17.690647 5.527263 -384.182214 -88.124995 390.235524 0.000000 0.000000 0.000000 -17.128206 -4.588727 -1.027790 3.552849 11.538425 34.120287 -0.029370 -6.019181 -3.325882 1.070899 -6.578388 -18.472239 0.000000 0.000000 0.000000 17.914442 6.524440 -29.333793 -1.359507 -7.380204 20.846863 0.803560 -15.637265 -6.033448 -1.000528 -6.364864 17.846898 2.734889 -0.754435 -0.688312 3.668983 -1.035375 -1.712862 2.239908 -0.558215 -1.351303 -8.984349 -4.533388 -11.383157 7.399913 -5.158341 -7.030613 3.827058 -2.462181 0.179880 0.000000 0.000000 0.000000 2.878325 -8.542031 -22.784699 12.112723 -19.972625 2.141308 10.128845 36.003432 -20.545043 0.000000 0.000000 0.000000 -7.125000 0.000000 0.000000 -18.162816 49.928729 2.273453 0.000000 0.000000 0.000000 -4.687582 -17.546958 -6.564727 -11.102071 -18.443205 -1.809168 23.332134 -22.891258 26.801714 0.000000 0.000000 0.000000 7.125000 0.000000 0.000000 51.068839 49.844175 -7.972498
4.904474 17.720357 5.475572 -400.930132 -88.079378 406.806377 0.000000 0.000000 0.000000 -16.285240 -4.641216 -2.119993 4.028769 12.196348 36.433375 -0.051580 -5.423356 -1.873153 1.077553 -6.598210 -18.530330 0.000000 0.000000 0.000000 18.944615 6.375400 -28.269405 -1.377386 -7.426765 20.986045 0.746927 -15.097646 -6.041590 -1.082388 -6.612270 18.571880 3.271580 -0.586240 -0.774332 3.771262 -0.815514 -1.864188 2.044938 -0.459640 -1.469285 -9.087863 -4.553819 -10.937518 7.398790 -5.203233 -7.373763 3.856506 -2.487912 -0.003443 0.000000 0.000000 0.000000 3.092813 -9.477926 -26.640445 13.074056 -21.394261 2.481141 10.169981 34.144653 -19.919233 0.000000 0.000000 0.000000 -7.125000 0.000000 0.000000 -17.854464 49.336530 1.966106 0.000000 0.000000 0.000000 -4.884113 -21.414765 -0.947728 -12.358232 -20.337321 -2.226901 23.702211 -27.071019 26.941085 0.000000 0.000000 0.000000 7.125000 0.000000 0.000000 51.464864 49.881803 -8.132186
4.636661 17.752687 5.424650 -415.998235 -87.876765 421.698411 0.000000 0.000000 0.000000 -15.423041 -4.711229 -3.332887 4.528545 12.830692 38.740636 -0.058362 -4.800550 -0.538193 1.069385 -6.573944 -18.459097 0.000000 0.000000 0.000000 19.970645 6.233632 -27.102673 -1.378247 -7.428883 20.992339 0.692882 -14.567666 -6.125508 -1.158816 -6.833958 19.224457 3.836897 -0.410532 -0.855619 3.866788 -0.585839 -2.018264 1.827363 -0.358162 -1.590315 -9.181334 -4.577739 -10.497246 7.413801 -5.254582 -7.729435 3.890822 -2.516811 -0.189005 0.000000 0.000000 0.000000 3.358529 -10.444456 -30.114998 14.114405 -22.896632 2.873368 10.308810 32.543879 -19.342270 0.000000 0.000000 0.000000 -7.125000 0.000000 0.000000 -17.485500 48.803593 1.687978 0.000000 0.000000 0.000000 -5.173360 -25.358627 3.876035 -13.776470 -22.411683 -2.743983 23.792946 -30.532383 27.087709 0.000000 0.000000 0.000000 7.125000 0.000000 0.000000 51.657392 49.971489 -8.322813
